<svg xmlns="http://www.w3.org/2000/svg" viewBox="0 0 24 24" width="1em" height="1em" fill="#A3A3A3" class="h-3.5 w-3.5 text-label-4 dark:text-dark-label-4 hover:text-label-3 dark:hover:text-dark-label-3"><path fill-rule="evenodd" d="M12 22C6.477 22 2 17.523 2 12S6.477 2 12 2s10 4.477 10 10-4.477 10-10 10zm1.414-10l2.293-2.293a1 1 0 00-1.414-1.414L12 10.586 9.707 8.293a1 1 0 00-1.414 1.414L10.586 12l-2.293 2.293a1 1 0 101.414 1.414L12 13.414l2.293 2.293a1 1 0 001.414-1.414L13.414 12z" clip-rule="evenodd"></path></svg>