<svg xmlns="http://www.w3.org/2000/svg" viewBox="0 0 24 24" width="1em" height="1em" fill="rgb(138, 138, 138)"><path fill-rule="evenodd" d="M13.663 22.309a1 1 0 01-.914.594 3.67 3.67 0 01-3.67-3.671V16.67H5.05a2.78 2.78 0 01-2.78-3.2l1.228-8.01a2.778 2.778 0 012.769-2.364H18.98a2.78 2.78 0 012.78 2.781v6.232a2.78 2.78 0 01-2.78 2.78H16.96l-3.297 7.419zm5.318-9.419a.78.78 0 00.78-.78V5.878a.78.78 0 00-.78-.78H17.31v7.792h1.67zM6.257 5.097a.781.781 0 00-.781.666l-1.229 8.01a.78.78 0 00.792.898h5.04a1 1 0 011 1v3.56c0 .712.443 1.32 1.07 1.56l3.16-7.113v-8.58H6.258z" clip-rule="evenodd"></path></svg>