<svg xmlns="http://www.w3.org/2000/svg" viewBox="0 0 24 24" width="1em" height="1em" fill="rgb(138, 138, 138)"><path fill-rule="evenodd" d="M7.04 9.11l3.297-7.419a1 1 0 01.914-.594 3.67 3.67 0 013.67 3.671V7.33h4.028a2.78 2.78 0 012.78 3.2l-1.228 8.01a2.778 2.778 0 01-2.769 2.363H5.019a2.78 2.78 0 01-2.78-2.78V11.89a2.78 2.78 0 012.78-2.78H7.04zm-2.02 2a.78.78 0 00-.781.78v6.232c0 .431.35.78.78.78H6.69V11.11H5.02zm12.723 7.793a.781.781 0 00.781-.666l1.228-8.01a.78.78 0 00-.791-.898h-5.04a1 1 0 01-1-1V4.77c0-.712-.444-1.32-1.07-1.56L8.69 10.322v8.58h9.053z" clip-rule="evenodd"></path></svg>